PathFileType	4	(X/Y/Z)	/Users/itak/Documents/Research/Walk-IL/dataset/trc/00029_00004.trc
DataRate	CameraRate	NumFrames	NumMarkers	Units	OrigDataRate	OrigDataStartFrame	OrigNumFrames
100.000000	100.000000	4	53	mm	100.000000	287	767
Frame#	Time	RPSI			LPSI			L3			STRN			T10			C7			CLAV			RBAK			LBAK			LSHO			LUPA			LAEL			LAOL			LWTS			LWPS			LFRA			LIFD			LHPS			LHTS			RSHO			RUPA			RAEL			RAOL			RWTS			RWPS			RFRA			RIFD			RHTS			RHPS			RBHD			LFHD			RFHD			LBHD			LHIP			RHIP			RASI			LASI			LKNE			LTHI			LANK			LTIP			LTOE			LMT1			LMT5			LHEE			RKNE			RTHI			RANK			RTIP			RTOE			RMT1			RMT5			RHEE			
		X1	Y1	Z1	X2	Y2	Z2	X3	Y3	Z3	X4	Y4	Z4	X5	Y5	Z5	X6	Y6	Z6	X7	Y7	Z7	X8	Y8	Z8	X9	Y9	Z9	X10	Y10	Z10	X11	Y11	Z11	X12	Y12	Z12	X13	Y13	Z13	X14	Y14	Z14	X15	Y15	Z15	X16	Y16	Z16	X17	Y17	Z17	X18	Y18	Z18	X19	Y19	Z19	X20	Y20	Z20	X21	Y21	Z21	X22	Y22	Z22	X23	Y23	Z23	X24	Y24	Z24	X25	Y25	Z25	X26	Y26	Z26	X27	Y27	Z27	X28	Y28	Z28	X29	Y29	Z29	X30	Y30	Z30	X31	Y31	Z31	X32	Y32	Z32	X33	Y33	Z33	X34	Y34	Z34	X35	Y35	Z35	X36	Y36	Z36	X37	Y37	Z37	X38	Y38	Z38	X39	Y39	Z39	X40	Y40	Z40	X41	Y41	Z41	X42	Y42	Z42	X43	Y43	Z43	X44	Y44	Z44	X45	Y45	Z45	X46	Y46	Z46	X47	Y47	Z47	X48	Y48	Z48	X49	Y49	Z49	X50	Y50	Z50	X51	Y51	Z51	X52	Y52	Z52	X53	Y53	Z53	

288	2.87	-536.7811279296875	1037.766723632812	332.6054992675781	-692.8790893554688	1047.081665039062	373.1076049804688	-621.4842529296875	1109.224487304688	360.2562866210938	-649.2091674804688	1286.774658203125	122.3574447631836	-625.7576904296875	1254.122314453125	375.42236328125	-635.310302734375	1518.752807617188	307.1486206054688	-643.6248779296875	1415.051635742188	157.2102508544922	-557.1337280273438	1382.13427734375	366.6849975585938	-731.7088012695312	1485.7109375	335.7727661132812	-810.1614379882812	1489.683715820312	238.1981811523438	-901.1846923828125	1382.111938476562	285.9273681640625	-967.3170166015625	1177.813232421875	308.1569213867188	-878.5808715820312	1150.9033203125	358.5233154296875	-957.4194946289062	928.4844970703125	201.1183929443359	-1003.096496582031	915.5770263671875	276.2501525878906	-995.3024291992188	1066.17724609375	289.9458618164062	-970.7723388671875	745.8346557617188	159.2879943847656	-1017.107849121094	830.0690307617188	234.9475708007812	-985.5874633789062	840.302978515625	171.8516235351562	-467.3478393554688	1486.637329101562	222.4045257568359	-398.9499206542969	1418.44677734375	241.9546813964844	-368.5728759765625	1163.90673828125	321.89404296875	-464.0833435058594	1136.521606445312	327.5597534179688	-402.2742309570312	891.0730590820312	226.6950988769531	-336.0238647460938	881.4888305664062	290.14453125	-352.2798767089844	1086.124267578125	319.4815368652344	-429.4323425292969	705.2174072265625	230.4077453613281	-395.85302734375	778.3237915039062	205.8924713134766	-345.1764221191406	775.6997680664062	261.5811462402344	-688.0142211914062	1703.09521484375	190.7954711914062	-505.6980895996094	1662.35546875	76.95558166503906	-595.0303955078125	1674.011474609375	36.45427703857422	-555.5143432617188	1682.376586914062	243.5029144287109	-826.6334228515625	956.6364135742188	310.4781799316406	-474.5232238769531	917.8041381835938	196.6145782470703	-568.2266235351562	959.6957397460938	118.6294174194336	-793.1159057617188	989.038330078125	176.8484344482422	-826.8047485351562	514.9365844726562	319.2453002929688	-839.1455688476562	654.5921630859375	328.6722717285156	-814.45263671875	48.99871444702148	509.1502075195312	-828.1781005859375	296.397216796875	448.5504455566406	-804.23974609375	40.64932250976562	281.2860412597656	-776.90869140625	51.23602676391602	336.6598205566406	-867.681640625	35.58962631225586	395.9145202636719	-748.1119384765625	65.80059051513672	564.6785278320312	-538.4255981445312	533.7297973632812	18.51039886474609	-481.2057800292969	774.4182739257812	135.0279998779297	-669.4901123046875	48.73997497558594	22.65350723266602	-563.7598266601562	405.5444030761719	12.74093246459961	-642.8681640625	91.15384674072266	-204.9985961914062	-688.7097778320312	88.07276916503906	-152.3918609619141	-604.4802856445312	66.71537017822266	-110.8045806884766	-729.510986328125	49.06500625610352	60.95888137817383	
289	2.88	-537.6051635742188	1035.716918945312	324.3448181152344	-693.9634399414062	1045.358154296875	363.7892150878906	-622.3995971679688	1107.532470703125	351.5022888183594	-648.0447387695312	1284.859985351562	113.1703872680664	-626.7887573242188	1252.436767578125	366.5599365234375	-635.84521484375	1517.01318359375	297.9253845214844	-642.64892578125	1413.168823242188	148.0964813232422	-558.1705322265625	1380.403076171875	358.313232421875	-732.5416870117188	1484.0751953125	325.7357177734375	-810.06396484375	1487.892944335938	227.4002380371094	-901.4756469726562	1380.388427734375	274.4461669921875	-967.957275390625	1176.171020507812	296.3091430664062	-879.6541137695312	1149.10595703125	347.4595031738281	-956.6962280273438	927.5277099609375	188.0305786132812	-1003.2138671875	914.1414794921875	262.5527648925781	-995.6654663085938	1064.627563476562	277.2825622558594	-969.5888671875	745.1325073242188	144.9380035400391	-1016.73828125	828.9056396484375	220.5718536376953	-984.50341796875	839.5027465820312	157.9154510498047	-467.0562438964844	1484.748168945312	214.7579803466797	-398.8840637207031	1416.549194335938	235.0215301513672	-369.3068542480469	1162.067626953125	315.6114501953125	-464.8455505371094	1134.865966796875	320.5411682128906	-402.8982849121094	889.3150024414062	220.1864471435547	-337.0242004394531	879.5844116210938	283.9953918457031	-353.0636291503906	1084.244750976562	313.3414306640625	-430.4176330566406	703.6060791015625	223.5760650634766	-396.5265808105469	776.5985717773438	199.3355255126953	-346.1762390136719	773.8125	255.3446655273438	-687.4940795898438	1701.230102539062	180.5466003417969	-504.0458984375	1660.149169921875	68.67163848876953	-592.9502563476562	1671.728271484375	27.2420539855957	-555.4850463867188	1680.5517578125	234.6505126953125	-827.3084106445312	955.454345703125	300.5094909667969	-474.6060180664062	915.5159301757812	188.9180450439453	-567.5780639648438	957.7716064453125	110.137336730957	-792.8523559570312	987.4334106445312	166.7965087890625	-826.5436401367188	514.1756591796875	314.2235717773438	-839.1341552734375	653.9122924804688	321.846923828125	-814.7367553710938	50.0386962890625	508.9261779785156	-828.34326171875	297.1552429199219	446.0860595703125	-804.2592163085938	40.61719131469727	281.2351379394531	-777.0284423828125	51.36500549316406	336.57421875	-867.7713012695312	35.60729217529297	395.7383117675781	-748.4141845703125	67.44837951660156	564.4030151367188	-537.8815307617188	531.4672241210938	12.16617107391357	-480.9400634765625	771.7112426757812	127.979606628418	-667.35986328125	47.19618606567383	-4.788725852966309	-562.690185546875	404.2370300292969	2.697226285934448	-632.9083862304688	97.89984130859375	-229.4774627685547	-680.6364135742188	92.9237060546875	-178.8462524414062	-598.0300903320312	69.72280120849609	-135.1174926757812	-728.6051635742188	46.22107696533203	31.48089218139648	
290	2.89	-538.2279052734375	1033.648559570312	315.8667602539062	-694.8229370117188	1043.621826171875	354.3307495117188	-623.113037109375	1105.778076171875	342.5480346679688	-646.7103271484375	1282.920532226562	103.879768371582	-627.6272583007812	1250.6806640625	357.5542602539062	-636.1168212890625	1515.214599609375	288.6134338378906	-641.4761962890625	1411.250122070312	138.8842468261719	-558.99609375	1378.598876953125	349.7896423339844	-733.1666259765625	1482.408081054688	315.6248474121094	-809.6990966796875	1486.073608398438	216.5655212402344	-901.4942626953125	1378.619995117188	262.92236328125	-968.3087158203125	1174.479736328125	284.4617004394531	-880.4364624023438	1147.298461914062	336.3730163574219	-955.6433715820312	926.4912109375	175.0581512451172	-1002.977905273438	912.6437377929688	248.9758605957031	-995.7055053710938	1063.020263671875	264.6767272949219	-968.0323486328125	744.334716796875	130.7875671386719	-1015.998718261719	827.6572875976562	206.3574523925781	-983.0690307617188	838.6033935546875	144.1421051025391	-466.5529479980469	1482.792358398438	207.0080108642578	-398.6360168457031	1414.58544921875	227.9636077880859	-369.897705078125	1160.146484375	309.1726684570312	-465.4596252441406	1133.147216796875	313.3870544433594	-403.2990112304688	887.5067749023438	213.3988037109375	-337.8782043457031	877.5980224609375	277.6669616699219	-353.6935729980469	1082.272827148438	307.0450744628906	-431.2719421386719	701.9114990234375	216.4887847900391	-397.0325927734375	774.8162231445312	192.5633239746094	-347.0544128417969	771.8431396484375	248.8958129882812	-686.7286376953125	1699.342651367188	170.2589263916016	-502.1940002441406	1657.91796875	60.30349349975586	-590.684326171875	1669.43310546875	17.99328422546387	-555.20556640625	1678.68798828125	225.7193756103516	-827.764404296875	954.2356567382812	290.4974060058594	-474.5521240234375	913.1804809570312	180.9668731689453	-566.8408203125	955.7857055664062	101.472526550293	-792.4879760742188	985.7833862304688	156.6679229736328	-826.3939819335938	513.3502197265625	308.8022155761719	-839.1705322265625	653.219970703125	314.7632751464844	-815.1087036132812	51.18481063842773	508.6797485351562	-828.6307983398438	297.9376525878906	443.3406677246094	-804.2745361328125	40.58529663085938	281.1836853027344	-777.1484375	51.50791168212891	336.4852600097656	-867.8782958984375	35.62453079223633	395.5414123535156	-748.8238525390625	69.28275299072266	564.1054077148438	-537.5401611328125	529.1333618164062	5.727604389190674	-480.7062377929688	768.8932495117188	120.6902770996094	-664.5677490234375	46.10541534423828	-30.86263847351074	-561.5934448242188	402.9165344238281	-7.109735012054443	-622.488037109375	104.7061767578125	-252.2023468017578	-672.0314331054688	97.96338653564453	-203.6313171386719	-591.1014404296875	72.91345977783203	-157.8682250976562	-726.948974609375	43.92133712768555	3.36529541015625	
291	2.9	-538.6472778320312	1031.589477539062	307.1632080078125	-695.4441528320312	1041.89697265625	344.7295532226562	-623.6257934570312	1103.980224609375	333.3814392089844	-645.2131958007812	1280.9794921875	94.48291015625	-628.2683715820312	1248.874755859375	348.3948669433594	-636.117431640625	1513.381469726562	279.2041015625	-640.1261596679688	1409.317993164062	129.5540008544922	-559.5964965820312	1376.74609375	341.1135864257812	-733.5545654296875	1480.717041015625	305.4305419921875	-809.0714111328125	1484.25	205.6868286132812	-901.238525390625	1376.826171875	251.3516387939453	-968.3715209960938	1172.76025390625	272.595947265625	-880.9249877929688	1145.497802734375	325.2456665039062	-954.2673950195312	925.3834228515625	162.2006683349609	-1002.398803710938	911.1031494140625	235.5203247070312	-995.4281005859375	1061.375366210938	252.1141357421875	-966.1056518554688	743.4429931640625	116.8569946289062	-1014.901916503906	826.3380126953125	192.3103637695312	-981.28466796875	837.6130981445312	130.5420684814453	-465.8318176269531	1480.789916992188	199.142578125	-398.197021484375	1412.569580078125	220.7669372558594	-370.3440551757812	1158.158813476562	302.5621032714844	-465.9317932128906	1131.375244140625	306.0830383300781	-403.4574890136719	885.6582641601562	206.3391723632812	-338.5787048339844	875.5431518554688	271.1647338867188	-354.1792602539062	1080.227661132812	300.576416015625	-431.959228515625	700.1430053710938	209.1638031005859	-397.3535766601562	772.9799194335938	185.5848541259766	-347.80322265625	769.8045043945312	242.250244140625	-685.7035522460938	1697.449951171875	159.9236450195312	-500.1287231445312	1655.685546875	51.85488891601562	-588.21044921875	1667.1474609375	8.697766304016113	-554.6704711914062	1676.814697265625	216.7069549560547	-828.0064086914062	953.0004272460938	280.4273071289062	-474.3504638671875	910.8469848632812	172.7344207763672	-566.0285034179688	953.7655029296875	92.61949920654297	-792.0279541015625	984.110595703125	146.4621887207031	-826.3753662109375	512.4774780273438	302.9652099609375	-839.2683715820312	652.5252075195312	307.394775390625	-815.5601806640625	52.45806884765625	508.4070739746094	-829.0287475585938	298.7500305175781	440.2981872558594	-804.2899780273438	40.55433654785156	281.1267395019531	-777.2757568359375	51.67311859130859	336.3858642578125	-868.0083618164062	35.6453857421875	395.31689453125	-749.3391723632812	71.32916259765625	563.7738037109375	-537.3539428710938	526.8084106445312	-0.9144395589828491	-480.4636535644531	766.0435791015625	113.1066436767578	-661.2234497070312	45.35812759399414	-55.35567855834961	-560.458740234375	401.606689453125	-16.75610160827637	-611.8720703125	111.2946929931641	-273.0997009277344	-663.119873046875	102.9387741088867	-226.6164855957031	-583.87255859375	76.13208770751953	-178.9492797851562	-724.641845703125	42.06991577148438	-23.1299934387207	
